<?xml version="1.0" encoding="UTF-8"?>
<svg id="Layer_2" data-name="Layer 2"
    xmlns="http://www.w3.org/2000/svg" viewBox="0 0 76.01 93.76">
    <defs>
        <style>
      .cls-1, .cls-2 {
        fill: #3b170b;
      }

      .cls-2, .cls-3, .cls-4 {
        fill-rule: evenodd;
      }

      .cls-3 {
        fill: #d48520;
      }

      .cls-4 {
        fill: #b16031;
      }
        </style>
    </defs>
    <g id="Layer_1-2" data-name="Layer 1">
        <path class="cls-1" d="M32.4,37.7c-1.45-1.45-3.45-2.35-5.67-2.35s-4.22,.9-5.67,2.35h0c-1.45,1.45-2.35,3.46-2.35,5.67s.9,4.22,2.35,5.67c1.45,1.45,3.46,2.35,5.67,2.35s4.22-.9,5.67-2.35h0c1.45-1.45,2.35-3.45,2.35-5.67s-.9-4.22-2.35-5.67h0Zm-5.67-4.01c2.67,0,5.09,1.08,6.84,2.83h0s0,0,0,0c1.75,1.75,2.83,4.17,2.83,6.84s-1.08,5.09-2.84,6.84h0c-1.75,1.75-4.17,2.84-6.84,2.84s-5.09-1.08-6.84-2.83c-1.75-1.75-2.83-4.17-2.83-6.84s1.08-5.09,2.83-6.84h0c1.75-1.75,4.17-2.83,6.84-2.83Z"/>
        <path class="cls-1" d="M54.95,37.7c-1.45-1.45-3.45-2.35-5.67-2.35s-4.22,.9-5.67,2.35h0c-1.45,1.45-2.35,3.46-2.35,5.67s.9,4.22,2.35,5.67,3.46,2.35,5.67,2.35,4.22-.9,5.67-2.35h0c1.45-1.45,2.35-3.45,2.35-5.67s-.9-4.22-2.35-5.67h0Zm-5.67-4.01c2.67,0,5.09,1.08,6.84,2.83h0s0,0,0,0c1.75,1.75,2.83,4.17,2.83,6.84s-1.08,5.09-2.84,6.84h0c-1.75,1.75-4.17,2.84-6.84,2.84s-5.09-1.08-6.84-2.83c-1.75-1.75-2.83-4.17-2.83-6.84s1.08-5.09,2.83-6.84h0c1.75-1.75,4.17-2.83,6.84-2.83Z"/>
        <path class="cls-3" d="M47.75,45.87c-.57,.03-1.43-.06-2.13-.76-1.17-1.15-.37-2.05-1.06-3.52,0,0,1.25,.1,2.38,.69,1.07,.56,1.87,1.07,1.49,3.17-.36-.8-1.04-1.8-2.35-2.54,0,0,1.38,.88,1.68,2.96m1.46-2.67c.41-.08,1-.29,1.39-.92,.63-1.03-.1-1.52,.13-2.69,0,0-.87,.3-1.57,.91-.66,.59-1.14,1.09-.51,2.52,.11-.63,.42-1.47,1.23-2.22,0,0-.83,.87-.67,2.4Zm.4,3.89c.68,.11,1.73,.11,2.67-.64,1.56-1.24,.71-2.42,1.73-4.1,0,0-1.52-.04-2.95,.53-1.37,.54-2.39,1.05-2.21,3.62,.53-.92,1.49-2.04,3.17-2.75,0,0-1.77,.88-2.4,3.34Zm-.33-10.88c3.95,0,7.16,3.2,7.16,7.16s-3.2,7.16-7.16,7.16-7.16-3.2-7.16-7.16,3.2-7.16,7.16-7.16Z"/>
        <path class="cls-4" d="M25.49,39l-2.18,.46,.39,1.83,2.18-.46-.38-1.83Zm2.65-.56l-2.18,.46,.39,1.83,2.18-.46-.39-1.83Zm.48,2.29l-2.18,.46,.38,1.83,2.18-.46-.38-1.83Zm-2.65,.56l-2.18,.46,.26,1.22,.18,.05c.46,.12,.87,.22,1.25,.3l.88-.19-.39-1.83Zm3.27,2.38l-.14-.64-2.18,.46,.02,.11c1.77,.28,2.25,.09,2.26,.09h.04Zm-4.65,1.88l.07,.32,.51,2.42,4.83-1.01-.4-1.91-.19-.05-.57,.57-.22,.22-.25-.18-.93-.66-.88,.61-.29,.2-.22-.28-.51-.66-.94,.43Zm1.06-.89l.69,.9,1.1-.76,1.14,.81,.73-.72,.22,.06,.76,.22-.96-1.14h0s-.01,0-.01,0h0s0,0,0,0h0s-.02,0-.02,0h-.03s-.01,.01-.01,.01h-.02s-.01,0-.01,0h-.02s-.04,0-.04,0h-.02s-.04,0-.04,0h-.07s0,0,0,0h-.04c-.12,.01-.26,.02-.45,.02h-.11s-.1,0-.1,0h-.07c-.11,0-.23-.01-.35-.03h-.03c-.13-.01-.27-.03-.42-.05h-.05c-.25-.04-.54-.08-.85-.13h-.04s0,0,0,0l-.28-.05h-.03s-.04-.01-.04-.01h-.01s-.01,0-.01,0h-.06s-.02-.02-.02-.02h-.04s-.03-.02-.03-.02h-.07s0-.02,0-.02l-.08-.02h0s-.04-.01-.04-.01h-.02c-.34-.07-.7-.15-1.1-.25h-.01s0,0,0,0h-.01s-.01,0-.01,0h0s-.02,0-.02,0h-.01s0,0,0,0h0s-.02,0-.02,0h0s-.01,0-.01,0h0s0,0,0,0h-.02s0,0,0,0h-.02s0,0,0,0h-.02s0,0,0,0h-.01s-.02,0-.02,0h0s-.07-.02-.07-.02l-.12-.03h-.03s-.94,.82-.94,.82l.93,.21,.18,.89,1.35-.61Zm1.08-8.44c3.94,0,7.14,3.19,7.14,7.14s-3.2,7.14-7.14,7.14-7.14-3.2-7.14-7.14,3.2-7.14,7.14-7.14Z"/>
        <path class="cls-1" d="M33.02,36.86c1.55-.87,3.28-1.31,5-1.31s3.44,.43,5,1.31l-.81,1.45c-1.3-.73-2.74-1.09-4.19-1.09s-2.89,.36-4.19,1.09l-.81-1.45Z"/>
        <path class="cls-2" d="M34.51,60.51c.7,.75,1.58,1.28,2.65,1.45,.75,.12,1.5,.03,2.21-.24,.61-.23,1.18-.58,1.69-.99,.69-.56,1.32-1.29,1.79-2.08-.23-.06-.45-.1-.67-.14-.87-.1-2.42,.02-3.78,1.61,.12-.45,.42-1.07,.92-1.36-1.28-.55-4.03,.41-4.8,1.76m2.26-5.06c4.04-1.12,5.69-3.16,7.68-.88,1.99,2.28-2.19,9.48-7.49,8.65-3.75-.59-5.14-4.29-5.63-6.41-1.88-.98-1.57-2.36-1.57-2.36,1.79,1.82,4.77,1.61,7.01,.98Z"/>
        <path class="cls-2" d="M73.9,79.42c-.17-.04-.33-.06-.46-.04-.14,.01-.26,.05-.38,.1-.34,.14-.64,.32-.9,.54-.26,.22-.47,.49-.64,.81-.02,.04-.04,.08-.05,.12,0,.04-.02,.09-.04,.14,0,.12,.08,.19,.21,.19s.29-.04,.48-.13c.19-.09,.39-.2,.61-.35,.22-.14,.42-.3,.6-.47,.18-.17,.33-.33,.43-.49,.11-.16,.15-.3,.12-.43m-.17,2.53c-.08,.05-.16,.1-.24,.14-.08,.05-.16,.09-.24,.13-.21,.13-.44,.24-.68,.31-.24,.08-.5,.12-.79,.12-.27,0-.53-.05-.77-.14-.24-.09-.46-.23-.64-.4-.19-.17-.34-.38-.45-.61-.11-.23-.18-.48-.19-.75-.02-.36,.04-.7,.17-1,.5-1.09,1.39-1.8,2.66-2.14,.35-.1,.73-.08,1.14,.05,.11,.03,.22,.07,.33,.11,.11,.04,.21,.1,.3,.19,.21,.17,.41,.35,.6,.54,.19,.19,.41,.34,.66,.46,.11,.07,.2,.16,.27,.28,.06,.12,.1,.25,.13,.37,.02,.05,.03,.1,.03,.14,0,.04,0,.09,0,.13-.07,.59-.14,1.19-.2,1.78-.06,.6-.14,1.19-.23,1.79-.07,.44-.19,.84-.37,1.22-.18,.37-.41,.71-.69,1.02-.3,.33-.64,.58-1.02,.77-.38,.18-.82,.28-1.32,.31-.4,.02-.77-.05-1.14-.21-.36-.16-.72-.38-1.06-.68-.16-.15-.3-.31-.4-.48-.1-.17-.18-.35-.25-.54-.07-.18-.08-.34-.03-.47,.05-.13,.13-.23,.27-.3,.31-.11,.62,0,.91,.32,.19,.23,.39,.38,.61,.43,.21,.06,.43,.07,.65,.03,.12-.02,.22-.05,.31-.09,.1-.05,.19-.1,.28-.17,.42-.31,.74-.67,.96-1.11,.22-.43,.38-.92,.47-1.45,0-.02,0-.03-.01-.04,0-.01-.02-.04-.04-.07Zm-8.61-2.69c.12-.12,.23-.24,.35-.38,.11-.14,.23-.27,.36-.4,.13-.13,.26-.24,.4-.34,.14-.1,.28-.17,.44-.22,.22-.06,.44-.07,.65-.04,.21,.03,.41,.09,.6,.2,.19,.1,.36,.24,.51,.41,.15,.17,.26,.38,.34,.61,.07,.22,.13,.44,.17,.67,.04,.22,.06,.44,.06,.65,0,.24,0,.47,0,.69-.01,.22-.03,.44-.04,.65-.01,.22-.02,.43-.01,.64,0,.21,.03,.42,.07,.62,.03,.15,.04,.28,0,.39-.03,.11-.1,.2-.23,.25-.14,.07-.28,.08-.42,.06-.14-.03-.29-.09-.45-.19-.19-.13-.34-.29-.44-.49-.11-.19-.19-.4-.24-.62-.06-.22-.1-.44-.12-.67-.02-.23-.03-.44-.03-.64,0-.45-.05-.78-.11-1-.07-.22-.15-.36-.24-.42-.09-.06-.2-.04-.33,.04-.12,.09-.25,.22-.38,.4-.13,.18-.25,.4-.38,.65-.12,.25-.23,.51-.33,.78-.09,.27-.17,.53-.23,.79-.06,.26-.1,.49-.1,.7,0,.06-.01,.12-.04,.19-.03,.07-.05,.13-.09,.19-.07,.2-.2,.34-.36,.42-.17,.08-.36,.09-.59,.04-.21-.07-.4-.18-.56-.35-.16-.16-.27-.36-.33-.59-.03-.15-.06-.3-.08-.44-.02-.15-.02-.29,0-.43,0-.59,.04-1.17,.13-1.73,.09-.56,.22-1.1,.41-1.63,.07-.17,.14-.32,.23-.46,.07-.09,.16-.15,.27-.18,.11-.03,.24-.02,.38,.03,.3,.07,.49,.25,.59,.52,.02,.05,.05,.15,.07,.29,.03,.14,.06,.26,.1,.34Zm-4.85,.59c-.08-.12-.21-.17-.38-.12-.17,.04-.35,.13-.54,.27-.19,.14-.39,.32-.57,.54-.19,.22-.35,.44-.47,.67-.07,.13-.11,.26-.14,.38-.03,.12-.03,.21,0,.28,.03,.07,.09,.1,.19,.09,.1,0,.24-.06,.43-.17,.17-.1,.34-.23,.51-.4,.18-.17,.34-.34,.48-.53,.14-.19,.26-.37,.35-.55,.09-.18,.14-.34,.14-.47Zm-.22,2.56c-.16,.1-.3,.19-.44,.28-.14,.09-.28,.18-.43,.27-.36,.2-.77,.28-1.22,.26-.37-.03-.7-.16-1-.4-.3-.23-.51-.53-.63-.9-.2-.52-.21-1-.05-1.43,.4-1.09,1.17-1.87,2.29-2.32,.39-.15,.82-.14,1.31,.03,.18,.07,.35,.15,.51,.27,.16,.11,.3,.26,.42,.44,.06-.02,.11-.03,.15-.05,.05-.02,.09-.03,.13-.05,.12-.03,.23-.03,.35,0,.12,.03,.23,.08,.33,.15,.1,.07,.18,.16,.25,.26,.07,.11,.1,.22,.11,.35,0,.11,0,.23-.02,.36-.07,.41-.13,.82-.19,1.24-.06,.41-.12,.82-.19,1.23-.02,.26-.04,.54-.04,.82-.02,.19-.06,.33-.14,.42-.08,.09-.2,.14-.36,.14-.16,0-.31-.04-.45-.13-.14-.09-.26-.22-.35-.39-.07-.12-.12-.26-.17-.4-.05-.14-.1-.28-.15-.43Zm-6.99-6.41c.21-.04,.43,0,.64,.11,.21,.12,.37,.27,.47,.46,.09,.21,.09,.39,0,.56-.09,.17-.24,.26-.45,.3-.21,.04-.42,0-.64-.09-.22-.1-.38-.24-.47-.43-.1-.2-.11-.39-.03-.57,.08-.18,.24-.29,.47-.33Zm.3,4.56s-.09,.04-.16,.08c-.07,.04-.13,.08-.2,.12-.07,.04-.14,.08-.2,.12-.07,.04-.12,.06-.16,.07-.12,.02-.25,.05-.38,.07-.13,.02-.26,.03-.4,.03-.34-.02-.59-.17-.75-.46-.16-.26-.15-.48,.01-.68,.04-.04,.09-.08,.14-.13,.05-.05,.11-.09,.15-.13,.3-.19,.61-.37,.9-.55,.3-.18,.6-.36,.9-.54,.04-.04,.09-.07,.15-.09,.06-.02,.12-.04,.17-.06,.17-.05,.33-.06,.49-.04,.16,.02,.32,.1,.49,.23,.16,.11,.27,.24,.33,.39,.05,.14,.07,.3,.06,.46,0,.15,.01,.31,.06,.48,.27,.87,.4,1.71,.39,2.52,0,.81-.13,1.59-.37,2.36-.09,.3-.21,.57-.36,.82-.15,.25-.34,.47-.58,.66-.28,.24-.6,.42-.95,.53-.35,.11-.75,.16-1.19,.12-.22-.02-.45-.07-.68-.15-.23-.09-.45-.2-.67-.33-.21-.13-.41-.28-.58-.45-.17-.17-.31-.34-.42-.53-.09-.16-.15-.31-.17-.46-.02-.15,.03-.28,.14-.41,.12-.12,.27-.17,.43-.18,.17,0,.34,.02,.53,.08,.17,.04,.33,.07,.5,.1,.17,.02,.33,.07,.49,.12,.29,.1,.54,.1,.76,0,.22-.1,.4-.26,.56-.49,.15-.23,.28-.51,.38-.83,.1-.33,.17-.66,.21-1,.04-.34,.06-.68,.06-1,0-.32-.03-.61-.08-.85Zm-5.84-.77c-.3-.03-.57,.02-.81,.16-.24,.14-.43,.32-.56,.56-.13,.23-.19,.5-.19,.8s.09,.59,.27,.88c.14,.12,.29,.13,.44,.02,.15-.11,.29-.29,.43-.54,.13-.25,.24-.54,.32-.88,.08-.34,.11-.67,.1-.99Zm.44,3.14c-.09,.09-.17,.17-.24,.23-.07,.07-.14,.13-.22,.2-.21,.17-.45,.28-.71,.32-.26,.04-.52,.02-.78-.05-.26-.07-.51-.21-.75-.4-.24-.19-.45-.43-.62-.73-.35-.58-.5-1.17-.43-1.74,.08-1,.56-1.78,1.42-2.33,.46-.29,1.02-.4,1.68-.32,.06,.02,.11,.03,.16,.03s.1,0,.16,.01c.05-.28,.09-.55,.14-.82,.04-.27,.08-.53,.12-.8,.05-.29,.12-.57,.21-.84,.09-.27,.21-.52,.37-.74,.07-.11,.14-.21,.23-.3,.09-.09,.18-.18,.28-.25,.17-.12,.36-.18,.58-.17,.22,.01,.43,.08,.62,.22,.2,.12,.35,.27,.47,.46,.11,.19,.15,.4,.11,.61-.02,.24-.06,.48-.1,.72-.05,.24-.1,.48-.17,.72-.24,.87-.4,1.77-.48,2.7-.08,.93-.11,1.87-.1,2.83,0,.18,0,.36,0,.53,0,.17-.02,.35-.04,.53,0,.04,0,.08,0,.12,0,.04,0,.08-.02,.12-.09,.33-.31,.48-.67,.46-.18-.02-.35-.08-.51-.18-.16-.1-.29-.25-.38-.43-.07-.1-.12-.21-.16-.32-.04-.12-.1-.25-.16-.4Zm-6.98-2.45c.1,0,.2-.02,.3-.07,.1-.05,.19-.1,.27-.17,.08-.07,.14-.15,.19-.24,.05-.09,.07-.19,.07-.28,0-.12-.03-.21-.08-.27-.05-.05-.15-.09-.29-.11-.27-.02-.5,.02-.67,.13-.18,.11-.29,.24-.34,.38-.05,.14-.03,.28,.06,.41,.09,.13,.26,.2,.51,.21Zm-1.24,1.23c.03,.3,.13,.51,.33,.64,.19,.13,.42,.2,.67,.22,.25,.02,.51-.01,.77-.09,.26-.07,.48-.17,.65-.28,.14-.09,.28-.13,.42-.12,.14,0,.27,.07,.38,.17,.26,.21,.3,.47,.11,.77-.04,.06-.08,.11-.12,.16-.04,.04-.08,.09-.14,.13-.39,.29-.81,.49-1.25,.61-.45,.11-.94,.13-1.49,.04-.54-.1-1.01-.33-1.4-.7-.39-.37-.65-.82-.78-1.35-.12-.45-.14-.9-.07-1.33,.07-.43,.21-.83,.43-1.2,.22-.37,.51-.68,.87-.94,.36-.26,.77-.45,1.24-.57,.24-.06,.48-.08,.73-.07,.25,.01,.5,.06,.73,.14,.24,.08,.47,.19,.69,.34,.22,.15,.41,.32,.59,.52,.38,.45,.53,.95,.46,1.48-.03,.25-.11,.48-.23,.7-.12,.22-.27,.41-.46,.58-.19,.17-.4,.31-.63,.42-.24,.11-.49,.18-.76,.22-.26,.04-.52,.03-.76-.02-.24-.06-.48-.15-.72-.28-.04-.02-.08-.04-.12-.07-.04-.03-.08-.06-.12-.08Zm-4.78,.64c.19-.13,.36-.33,.51-.59,.15-.26,.26-.52,.33-.8,.07-.36,.05-.65-.07-.87-.12-.22-.28-.35-.48-.41-.2-.05-.4-.02-.62,.11-.21,.13-.37,.36-.48,.69-.08,.24-.13,.5-.14,.77,0,.28,.02,.52,.09,.73,.07,.21,.18,.36,.31,.44,.14,.09,.32,.06,.53-.08Zm-2.79-.37c-.03-.13-.06-.29-.07-.47-.01-.18-.02-.37-.01-.56,0-.19,.02-.38,.05-.57,.03-.19,.07-.35,.13-.49,.16-.43,.4-.79,.71-1.07,.31-.29,.68-.52,1.11-.68,.3-.12,.61-.16,.93-.12,.32,.05,.62,.16,.89,.34,.27,.18,.51,.42,.7,.72,.2,.3,.33,.63,.4,.99,.14,.78,.12,1.45-.07,1.99-.19,.54-.56,1.01-1.13,1.41-.35,.25-.72,.39-1.11,.44-.38,.05-.74,0-1.08-.14-.34-.14-.64-.35-.9-.66-.26-.3-.44-.67-.55-1.12Zm-2.32-.69c-.27-.08-.55-.11-.82-.08-.28,.03-.52,.11-.73,.24-.21,.13-.39,.3-.51,.52-.13,.21-.18,.46-.14,.73,.21-.09,.41-.18,.62-.26,.21-.08,.41-.17,.6-.28,.19-.1,.38-.22,.54-.36,.17-.14,.32-.31,.45-.51Zm-1.94-1.33c.26-.16,.51-.38,.77-.64,.26-.26,.48-.54,.69-.82,.2-.28,.36-.56,.48-.83,.12-.27,.17-.5,.15-.68-.24,.07-.48,.23-.74,.46-.25,.23-.48,.49-.69,.78-.21,.29-.38,.59-.51,.91-.13,.31-.18,.59-.15,.83Zm1.96,.14c.08,.04,.15,.07,.22,.09,.06,.02,.12,.05,.18,.08,.35,.16,.62,.39,.81,.68,.19,.29,.26,.59,.22,.91-.02,.16-.05,.3-.11,.44-.06,.14-.13,.27-.21,.38-.27,.4-.61,.69-1.02,.89-.41,.2-.87,.33-1.38,.41-.14,.02-.28,.05-.41,.07-.14,.02-.28,.04-.43,.06-.09,0-.16,.03-.22,.06-.05,.03-.1,.09-.14,.19-.14,.39-.41,.53-.81,.42-.21-.06-.39-.16-.52-.3-.14-.14-.24-.31-.3-.51-.05-.19-.09-.37-.12-.54-.03-.17-.07-.35-.11-.54-.16-.95-.27-1.88-.31-2.79-.05-.91,.03-1.8,.23-2.66,.07-.29,.15-.57,.25-.85,.1-.28,.21-.55,.33-.82,.04-.11,.11-.2,.2-.28,.09-.08,.19-.15,.29-.2,.12-.06,.25-.08,.38-.08,.13,0,.26,.04,.38,.1,.12,.06,.24,.15,.35,.25,.11,.11,.19,.23,.26,.38,.03,.07,.05,.13,.07,.19,.02,.06,.05,.13,.09,.22,.05-.04,.1-.07,.14-.09,.05-.02,.09-.04,.13-.07,.14-.09,.28-.18,.41-.27,.14-.09,.28-.16,.43-.23,.17-.09,.34-.14,.53-.16,.26-.04,.51-.03,.75,.04,.23,.07,.44,.18,.6,.33,.17,.15,.3,.34,.38,.56,.09,.22,.12,.46,.09,.73-.03,.23-.09,.45-.16,.67-.07,.21-.16,.42-.27,.61-.13,.25-.28,.48-.45,.69-.17,.21-.33,.43-.5,.65-.02,.04-.06,.08-.1,.13-.05,.05-.09,.1-.13,.17Zm-11.35,2.26c.19-.13,.36-.33,.51-.59,.15-.26,.26-.52,.33-.8,.07-.36,.05-.65-.07-.87-.12-.22-.28-.35-.48-.41-.2-.05-.4-.02-.62,.11-.21,.13-.37,.36-.48,.69-.08,.24-.13,.5-.14,.77,0,.28,.02,.52,.09,.73,.07,.21,.17,.36,.31,.44,.14,.09,.32,.06,.53-.08Zm-2.79-.37c-.03-.13-.06-.29-.07-.47-.01-.18-.02-.37-.01-.56,0-.19,.02-.38,.05-.57,.03-.19,.07-.35,.13-.49,.16-.43,.4-.79,.71-1.07,.31-.29,.68-.52,1.11-.68,.3-.12,.61-.16,.93-.12,.32,.05,.62,.16,.89,.34,.27,.18,.51,.42,.7,.72,.2,.3,.33,.63,.4,.99,.14,.78,.12,1.45-.07,1.99-.19,.54-.56,1.01-1.13,1.41-.35,.25-.72,.39-1.1,.44-.38,.05-.74,0-1.08-.14-.34-.14-.64-.35-.9-.66-.26-.3-.44-.67-.55-1.12Zm-2.11,.05c-.09,.1-.19,.21-.28,.33-.1,.12-.2,.24-.3,.36-.1,.12-.21,.23-.32,.33-.11,.1-.22,.17-.34,.22-.19,.09-.38,.13-.58,.13-.2,0-.39-.05-.58-.12-.19-.08-.37-.19-.55-.34-.18-.15-.33-.33-.48-.54-.25-.41-.39-.83-.43-1.26-.07-.87,.1-1.63,.53-2.3,.13-.24,.33-.39,.59-.44,.14-.03,.28-.02,.42,.02,.14,.04,.27,.1,.38,.19,.11,.09,.2,.2,.27,.32,.07,.12,.1,.26,.1,.41,0,.12-.01,.22-.04,.31-.02,.09-.05,.18-.06,.27-.03,.21-.06,.43-.09,.64-.03,.21-.05,.43-.07,.65-.04,.25-.02,.42,.07,.53,.09,.1,.19,.09,.3-.03,.14-.15,.28-.32,.41-.53,.13-.2,.26-.41,.37-.64,.11-.22,.23-.44,.33-.67,.11-.22,.21-.42,.3-.6,.02-.04,.03-.08,.04-.11,0-.03,.02-.06,.04-.08,.08-.16,.2-.26,.34-.3,.14-.04,.3-.03,.46,.04,.17,.07,.3,.19,.4,.35,.09,.16,.13,.34,.12,.54-.03,.4-.04,.79-.06,1.19-.01,.4-.03,.8-.04,1.2,0,.16,0,.33,.01,.49,0,.16,.01,.32,.01,.49,0,.32-.13,.48-.42,.48-.14,0-.27-.06-.4-.14-.12-.09-.22-.21-.28-.38-.04-.12-.07-.27-.08-.47-.01-.2-.04-.37-.09-.53Zm-9.88-4.51c-.02,.75-.05,1.49-.1,2.22-.05,.73-.12,1.46-.21,2.18,0,.07-.02,.15-.04,.24-.02,.09,.02,.19,.11,.3,.74-.44,1.4-.93,1.99-1.47,.22-.21,.44-.44,.64-.68,.21-.24,.37-.5,.49-.79,.08-.17,.15-.35,.21-.54,.06-.19,.09-.38,.11-.57,.04-.42-.06-.79-.3-1.09-.24-.31-.59-.52-1.05-.65-.62-.17-1.23-.21-1.85-.12v.98Zm-2.58,.59s-.08,.02-.12,.03c-.04,0-.08,.01-.12,.01-.14,0-.27-.01-.38-.06-.12-.04-.21-.11-.3-.19-.08-.08-.14-.18-.19-.29-.04-.11-.05-.23-.04-.35,.02-.12,.05-.24,.09-.36,.04-.11,.09-.22,.16-.32,.14-.24,.31-.44,.51-.61,.2-.17,.42-.32,.67-.46,.1-.06,.2-.12,.3-.18,.1-.06,.2-.12,.3-.17,.03-.02,.05-.04,.08-.06,.03-.02,.07-.03,.12-.03,.27-.05,.55-.1,.82-.14,.28-.04,.56-.07,.84-.09,.28-.02,.57-.01,.87,.01,.3,.02,.6,.08,.91,.16,.73,.2,1.37,.53,1.9,1,.53,.46,.91,1.05,1.13,1.75,.09,.24,.15,.48,.17,.72,.02,.24,.03,.47,.01,.7-.05,.77-.24,1.44-.57,2.01-.33,.57-.78,1.07-1.33,1.5-.5,.39-1.04,.72-1.6,.99-.57,.28-1.18,.5-1.83,.66-.05,.02-.1,.03-.16,.04-.06,0-.09,.02-.11,.05-.07,.08-.14,.14-.23,.17-.09,.03-.18,.05-.27,.06-.09,0-.2,0-.3,0-.11-.01-.21-.02-.31-.03-.18-.02-.35-.06-.5-.14-.15-.08-.28-.2-.38-.36-.12-.18-.2-.36-.22-.53-.02-.17,.03-.32,.15-.43,.13-.12,.2-.26,.22-.41,.01-.15,0-.32-.03-.51-.09-.68-.17-1.34-.23-2.01-.06-.66-.07-1.32-.02-1.96,0-.02,0-.04,0-.06,0-.02,0-.06,0-.1Z"/>
        <path class="cls-3" d="M54,73.46s-.11,.04-.24,.03c-.13-.01-.26-.04-.41-.07-.15-.04-.3-.08-.44-.13-.14-.05-.25-.11-.31-.16-.07-.06-.06-.36,.03-.9,.09-.54,.2-1.09,.32-1.64-.28-.09-.52-.17-.72-.25-.2-.08-.3-.15-.31-.2-.01-.08-.01-.21,.01-.38,.02-.17,.05-.34,.09-.51,.04-.17,.09-.32,.14-.46,.05-.13,.1-.21,.14-.22,.07-.03,.26,0,.59,.06,.33,.07,.7,.15,1.12,.26,.42,.11,.84,.23,1.26,.35,.43,.13,.77,.24,1.04,.34,.11,.04,.16,.15,.14,.34-.01,.19-.06,.39-.13,.6-.07,.21-.16,.4-.27,.56-.11,.16-.2,.24-.28,.22-.08,0-.2-.03-.36-.07-.16-.04-.35-.08-.55-.13-.16,.54-.33,1.05-.51,1.54-.18,.49-.3,.76-.38,.82m-4.89-3.8c-.08,.06-.16,.16-.25,.31-.09,.15-.13,.25-.12,.31,.02,.09,.14,.15,.36,.18,.22,.03,.36,0,.39-.1,.02-.06-.01-.21-.11-.44-.09-.24-.19-.32-.27-.25Zm-2.33,2.27s-.04-.1-.04-.15c.03-.19,.11-.47,.24-.84,.13-.37,.29-.75,.46-1.15,.17-.39,.35-.76,.53-1.1,.18-.34,.32-.58,.43-.71,.04-.05,.16-.09,.34-.1,.18-.02,.37-.02,.58,0,.21,.02,.41,.05,.6,.1,.19,.05,.32,.12,.38,.2,.09,.12,.18,.38,.27,.76,.09,.38,.17,.8,.25,1.24,.07,.45,.13,.87,.18,1.28,.05,.41,.08,.69,.09,.86,0,.12-.02,.2-.06,.24-.05,.04-.12,.06-.23,.06-.18,0-.39-.01-.65-.04-.26-.03-.42-.05-.48-.07-.02,0-.05-.02-.07-.04-.06-.06-.11-.19-.14-.41-.03-.22-.07-.37-.12-.45-.03-.05-.07-.09-.13-.1l-.48-.08c-.15-.02-.26,.01-.32,.1-.08,.11-.17,.24-.27,.38-.1,.14-.17,.22-.21,.25-.02,.02-.05,.03-.09,.03-.08,0-.27-.02-.57-.08-.3-.06-.46-.12-.49-.17Zm-1.45-4.45c0,.09-.01,.27-.03,.52-.02,.25-.04,.52-.07,.79-.03,.27-.05,.52-.06,.74-.02,.22-.02,.35-.01,.37,0,.05,.07,.08,.19,.1,.12,.02,.25,.03,.39,.04,.15,0,.29,.01,.42,.02,.14,0,.23,.02,.28,.04,.07,.03,.11,.14,.14,.33,.03,.19,.03,.39,.02,.6,0,.21-.03,.41-.08,.58-.04,.18-.1,.27-.17,.28-.1,.02-.31,.02-.61,.01-.3,0-.62-.03-.96-.06-.33-.03-.65-.07-.93-.13-.28-.06-.45-.12-.52-.2-.06-.08-.09-.31-.08-.71,0-.39,.02-.82,.06-1.29,.04-.47,.08-.91,.12-1.33,.05-.42,.09-.7,.11-.83,.02-.08,.12-.13,.31-.15,.19-.02,.39-.02,.61,0,.22,.02,.42,.06,.59,.11,.18,.05,.27,.1,.27,.16Zm-2.42,.74c0,.08-.1,.23-.31,.46-.21,.23-.46,.47-.73,.73,.41,.24,.74,.45,.98,.63,.06,.05,.07,.16,.03,.34-.04,.18-.11,.36-.2,.55-.09,.19-.2,.36-.32,.5-.12,.14-.22,.2-.32,.18-.1-.03-.27-.11-.52-.24-.25-.13-.52-.29-.8-.45-.05,.27-.09,.42-.14,.47-.05,.08-.26,.12-.63,.12-.37,0-.63-.03-.78-.11-.07-.03-.12-.24-.15-.62-.03-.38-.05-.81-.06-1.29,0-.48,0-.93,.01-1.37,.01-.44,.04-.73,.06-.88,.02-.09,.13-.16,.33-.21,.2-.04,.42-.06,.65-.06s.45,.02,.64,.06c.19,.04,.29,.1,.3,.18,0,.08,0,.17,0,.26,0,.09,0,.19,0,.3,.24-.18,.46-.33,.66-.44,.2-.11,.33-.15,.38-.12,.15,.08,.34,.24,.56,.5,.22,.25,.33,.42,.32,.49Zm-6.19,1.09c.02-.17-.01-.31-.11-.43-.1-.12-.23-.19-.41-.21-.17-.02-.31,.02-.44,.12-.12,.1-.2,.23-.22,.39-.03,.18,.03,.35,.17,.48,.14,.14,.31,.19,.51,.16,.14-.02,.25-.07,.34-.17,.09-.09,.14-.21,.16-.34Zm1.71,.21c-.08,.63-.37,1.14-.87,1.54-.49,.4-1.07,.55-1.74,.46-.64-.09-1.16-.38-1.54-.88-.38-.5-.53-1.05-.45-1.67,.08-.57,.34-1.06,.79-1.46,.45-.4,.98-.58,1.59-.55,.74,.04,1.32,.3,1.73,.79,.42,.48,.59,1.07,.49,1.77Zm-5.53-.87c-.09,.01-.17,.02-.26,.04-.08,.01-.17,.03-.25,.05-.2,.06-.38,.17-.54,.34-.16,.17-.2,.37-.14,.59,.03,.1,.09,.18,.17,.23,.13,.09,.3,.12,.5,.1,.2-.02,.38-.06,.52-.1,.08-.04,.16-.04,.24,0,.08,.03,.15,.08,.21,.17,.1,.14,.19,.32,.24,.55,.05,.23,.06,.43,0,.59-.04,.13-.11,.21-.21,.24-.31,.15-.67,.23-1.06,.26-.39,.03-.75-.01-1.06-.13-.43-.15-.78-.4-1.03-.75-.25-.35-.38-.76-.37-1.23,.02-.75,.26-1.35,.73-1.81,.47-.46,1.1-.68,1.86-.67,.13,0,.24,.06,.35,.17,.11,.11,.2,.31,.29,.6,.09,.29,.07,.51-.06,.66-.05,.06-.1,.09-.17,.09Zm-7.13,.79s-.08,0-.12-.01c-.05-.02-.07-.05-.08-.08,0-.04-.03-.06-.08-.09-.11-.06-.23-.02-.36,.11-.13,.13-.05,.2,.23,.21,.03,0,.06,0,.1,0,.04,0,.07,0,.11,0,.46,0,.84,.06,1.14,.2,.36,.17,.6,.45,.72,.81,.12,.37,.08,.73-.12,1.07-.24,.41-.61,.69-1.12,.84-.51,.15-.98,.12-1.41-.07-.37-.17-.63-.42-.77-.75-.07-.16,0-.3,.17-.43,.08-.06,.17-.1,.27-.14,.1-.04,.2-.07,.3-.09,.16-.03,.31-.04,.44-.02,.14,.01,.22,.05,.25,.12,0,.01,.01,.03,.02,.04,.03,.04,.08,.07,.14,.08,.08,.02,.16,0,.25-.06,.09-.06,.1-.13,.05-.21-.03-.04-.09-.06-.2-.07-.24-.02-.48-.03-.71-.02-.23,0-.46-.04-.7-.16-.17-.08-.31-.2-.43-.37-.12-.17-.19-.41-.22-.71-.04-.42,.1-.79,.4-1.12,.18-.19,.39-.34,.65-.44,.25-.1,.51-.15,.77-.15,.26,0,.5,.07,.73,.18,.23,.12,.41,.3,.53,.54,.05,.09,.04,.18-.04,.27-.07,.09-.17,.17-.28,.24-.12,.07-.24,.13-.37,.18-.13,.05-.23,.08-.29,.09Zm-3.7,2.43c.33-.1,.63-.2,.9-.29,.26-.09,.43-.12,.49-.08,.06,.03,.15,.2,.27,.51,.12,.31,.17,.55,.18,.71,0,.07-.14,.16-.41,.28-.27,.12-.58,.24-.92,.35-.34,.11-.68,.21-1,.3-.32,.08-.54,.12-.65,.1-.06,0-.15-.15-.27-.42-.12-.27-.24-.6-.38-.98-.13-.38-.26-.76-.37-1.16-.12-.4-.21-.72-.27-.97-.04-.14-.07-.26-.08-.39,0-.12,0-.2,.05-.24,.04-.04,.2-.12,.48-.22,.28-.1,.59-.21,.92-.31,.33-.1,.64-.18,.93-.25,.29-.06,.46-.08,.51-.05,.06,.03,.14,.18,.23,.47,.09,.29,.14,.51,.14,.67,0,.07-.12,.16-.36,.24-.24,.09-.53,.18-.85,.29,0,.02,.02,.05,.03,.08,0,.03,.02,.06,.03,.08,.22-.06,.4-.09,.54-.1,.04,0,.08,.05,.14,.14,.06,.1,.12,.2,.17,.32,.05,.12,.08,.23,.1,.34,.02,.11,0,.18-.05,.2-.03,.02-.1,.05-.2,.09-.1,.04-.21,.08-.33,.12,0,.02,.02,.05,.02,.08,.01,.03,.02,.06,.02,.08Z"/>
        <path class="cls-3" d="M52.69,90.64s.09,.11,.13,.29c.04,.18,.05,.31,.02,.38-.01,.03-.09,.07-.24,.11-.15,.04-.31,.08-.5,.12-.18,.04-.36,.07-.53,.1-.17,.03-.29,.04-.35,.04-.05,0-.09-.03-.13-.11-.04-.08-.07-.16-.09-.26-.02-.1-.03-.19-.02-.27,0-.08,.02-.13,.06-.14,.11-.03,.25-.07,.43-.1,.18-.04,.35-.07,.52-.1,.17-.03,.33-.05,.46-.06,.13-.01,.22-.01,.24,0m-2.98,.42c-.11,0-.2,.04-.28,.08-.11,.06-.18,.14-.22,.23-.04,.1-.04,.19-.02,.29,.03,.09,.08,.17,.17,.23,.09,.06,.2,.09,.34,.07,.1-.01,.15-.06,.16-.12,0-.07,0-.14,0-.2-.01-.04,.03-.09,.11-.13,.09-.05,.19-.08,.3-.11,.11-.03,.22-.04,.32-.04,.1,0,.16,.02,.17,.07,.03,.09,.05,.2,.08,.33,.03,.13,.05,.27,.07,.4,.02,.13,.03,.25,.04,.35,0,.1,0,.17-.02,.19-.01,.03-.11,.06-.28,.09-.17,.03-.29,.04-.37,.03-.01,0-.02,0-.04-.02-.2,.08-.41,.13-.62,.15-.37,.03-.69-.07-.98-.29-.28-.22-.43-.52-.45-.9-.02-.42,.09-.76,.31-1.03,.22-.27,.52-.44,.9-.52,.25-.05,.49-.03,.72,.05,.22,.08,.36,.28,.41,.58,.01,.04-.01,.09-.07,.13-.06,.04-.13,.08-.21,.11-.08,.03-.17,.06-.25,.07-.08,.02-.14,.03-.18,.03-.05,0-.08-.02-.08-.05,0-.03-.02-.05-.04-.05Zm-1.61,1.99s-.05,.06-.12,.08c-.07,.02-.15,.04-.23,.05-.09,.01-.17,.02-.25,.02-.08,0-.13,0-.16-.01-.04-.01-.1-.05-.19-.12-.08-.07-.17-.14-.26-.22-.09-.08-.17-.16-.25-.23-.07-.07-.12-.12-.14-.15,0,.21,0,.4,0,.55,0,.15-.02,.24-.05,.25-.08,.05-.23,.08-.45,.09-.21,.01-.34,0-.36-.05-.03-.03-.06-.15-.1-.35-.04-.2-.08-.43-.11-.7-.03-.26-.06-.53-.08-.8-.02-.27-.03-.49-.02-.67,0-.04,.04-.07,.12-.09,.08-.03,.17-.05,.27-.06,.1-.01,.2-.02,.31-.02,.1,0,.19,.01,.24,.03,.08,.03,.2,.11,.34,.26,.14,.15,.24,.26,.3,.33-.02-.13-.03-.24-.05-.34-.01-.1-.02-.17-.02-.22,0-.06,.05-.11,.15-.15,.1-.04,.22-.07,.35-.09,.13-.02,.24-.02,.36,0,.11,.01,.17,.04,.18,.08,.04,.17,.07,.39,.1,.67,.03,.27,.06,.54,.08,.8,.02,.26,.04,.5,.05,.7,0,.2,0,.32,0,.35Zm-4.21-1.17s-.07,.12-.11,.22c-.03,.1-.04,.17-.03,.2,.02,.05,.1,.07,.24,.06,.13-.01,.21-.05,.22-.11,0-.04-.04-.12-.12-.25-.09-.13-.15-.16-.19-.11Zm-1.07,1.64s-.04-.05-.04-.08c0-.11,0-.29,.03-.52,.03-.23,.07-.48,.12-.73,.05-.25,.1-.49,.16-.71,.06-.22,.11-.38,.16-.47,.02-.04,.08-.07,.18-.1,.1-.03,.22-.06,.34-.08,.13-.02,.25-.02,.36-.02,.12,0,.2,.03,.25,.07,.07,.06,.16,.2,.26,.41,.1,.21,.21,.44,.31,.7,.1,.25,.19,.49,.28,.72,.08,.23,.14,.39,.17,.49,.02,.07,.02,.12,0,.15-.02,.03-.07,.05-.13,.06-.1,.02-.23,.05-.39,.06-.16,.02-.25,.02-.29,.02-.01,0-.03,0-.04-.01-.04-.02-.09-.1-.14-.22-.05-.12-.09-.21-.13-.25-.02-.03-.05-.04-.09-.04h-.29c-.09,.02-.15,.06-.17,.12-.03,.08-.07,.16-.11,.26-.04,.09-.07,.15-.09,.18,0,.01-.03,.02-.05,.03-.05,.01-.16,.02-.34,.03-.18,0-.29,0-.31-.04Zm-.46,.02s-.14,.08-.37,.11c-.22,.02-.38,.01-.48-.02-.04-.01-.09-.14-.14-.36-.05-.23-.1-.48-.14-.76-.04-.28-.08-.55-.1-.81-.03-.26-.04-.44-.03-.52,0-.07,.07-.13,.19-.18,.12-.04,.26-.07,.41-.09,.15-.01,.29,0,.41,.01,.12,.02,.19,.06,.2,.12,.03,.17,.05,.39,.07,.66,.02,.27,.03,.53,.03,.79,0,.26,0,.49-.01,.69,0,.2-.03,.32-.05,.36Zm-2.47-1.63c-.11,0-.2,0-.29,.04-.11,.04-.2,.11-.25,.2-.05,.09-.07,.19-.06,.28,.01,.09,.06,.18,.14,.25,.08,.07,.19,.11,.33,.12,.1,0,.16-.03,.17-.1,.01-.07,.02-.13,.03-.2,0-.05,.04-.08,.13-.12,.09-.04,.2-.06,.31-.07,.11-.01,.22-.01,.32,0,.1,.01,.15,.04,.16,.09,.01,.09,.02,.2,.03,.34,0,.14,.01,.27,.01,.41,0,.13,0,.25-.01,.35,0,.1-.02,.16-.04,.18-.02,.02-.11,.04-.28,.05-.17,0-.29,0-.37-.02-.01,0-.02,0-.03-.03-.21,.05-.42,.07-.63,.06-.37-.02-.68-.16-.93-.42-.25-.26-.36-.57-.32-.95,.04-.42,.19-.74,.44-.98,.25-.24,.57-.37,.96-.39,.26-.02,.49,.03,.7,.15,.21,.11,.32,.32,.33,.63,0,.05-.02,.09-.09,.12-.06,.03-.14,.06-.22,.08-.09,.02-.17,.03-.26,.04-.09,0-.15,0-.18,0-.05,0-.08-.03-.07-.06,0-.03-.01-.05-.04-.05Zm-1.89,1.75s-.06,.05-.13,.06c-.07,.01-.15,.01-.24,.01s-.17,0-.25-.02c-.08-.01-.13-.02-.16-.04-.04-.02-.1-.07-.17-.15-.07-.08-.15-.17-.23-.26-.08-.09-.15-.18-.21-.26-.07-.08-.11-.14-.12-.16-.03,.21-.05,.39-.07,.54-.03,.15-.05,.23-.08,.25-.09,.04-.24,.05-.46,.03-.21-.02-.33-.05-.35-.1-.03-.04-.04-.16-.05-.36-.01-.21-.02-.44-.01-.7,0-.26,.01-.53,.03-.8,.02-.27,.04-.49,.08-.66,0-.04,.05-.06,.13-.08,.08-.02,.17-.02,.27-.02,.1,0,.21,0,.31,.02,.1,.01,.18,.04,.24,.06,.08,.04,.18,.14,.3,.3,.12,.16,.2,.29,.26,.37,0-.13,0-.24,0-.34,0-.1,0-.17,0-.22,0-.06,.06-.1,.17-.12,.11-.03,.23-.04,.35-.04,.13,0,.25,.01,.35,.04,.11,.03,.16,.06,.17,.1,.01,.18,.02,.4,.01,.67,0,.27-.01,.54-.03,.81-.01,.26-.03,.5-.05,.7-.02,.2-.03,.32-.05,.35Zm-4.13-1.52c.09,0,.16-.04,.21-.09,.05-.06,.08-.11,.08-.18,0-.06-.03-.12-.08-.16-.06-.05-.14-.07-.26-.06-.1,0-.14,.09-.12,.26,.02,.16,.07,.24,.17,.23Zm.89,.37c.12,.11,.22,.21,.31,.31,.09,.1,.13,.17,.13,.22,0,.04-.02,.09-.06,.15-.04,.07-.09,.13-.14,.2-.05,.07-.1,.12-.16,.17-.05,.05-.08,.07-.1,.07-.08,.01-.19-.03-.33-.13-.15-.1-.26-.17-.35-.2-.09-.03-.14-.02-.14,.03,0,.09-.01,.15-.03,.2-.02,.04-.08,.07-.18,.08-.11,0-.24,0-.39,0-.15,0-.24-.01-.28-.02-.03,0-.05-.02-.06-.05-.02-.03-.04-.18-.06-.45-.02-.26-.03-.55-.04-.86,0-.31,0-.59,0-.85,.01-.26,.03-.4,.07-.41,.13-.07,.31-.11,.53-.14,.22-.02,.44-.01,.65,.04,.22,.05,.4,.15,.57,.29,.16,.14,.26,.34,.29,.6,.04,.35-.04,.6-.23,.74Zm-3.06,0c.21,.01,.4,.02,.56,.03,.17,0,.27,.02,.29,.06,.03,.03,.04,.14,.04,.35,0,.2-.02,.35-.05,.43-.02,.04-.11,.06-.29,.07-.18,.01-.37,.01-.59,0-.22,0-.43-.02-.62-.04-.2-.02-.33-.05-.39-.08-.04-.02-.06-.11-.07-.29,0-.18-.01-.39,0-.63,0-.24,.02-.48,.03-.73,.02-.25,.04-.45,.05-.6,0-.09,.02-.16,.04-.23,.02-.07,.05-.11,.08-.13,.03-.02,.14-.02,.32-.02,.18,0,.38,0,.58,.02,.21,.01,.4,.03,.58,.06,.18,.03,.28,.05,.3,.08,.03,.03,.04,.13,.03,.31,0,.18-.03,.31-.06,.4-.02,.04-.1,.06-.26,.06-.16,0-.34,0-.54-.02,0,.01,0,.03,0,.05,0,.02,0,.04,0,.05,.13,.01,.24,.03,.32,.06,.02,0,.04,.05,.05,.11,.01,.07,.02,.14,.02,.22,0,.08,0,.15-.02,.21-.01,.06-.04,.1-.07,.1-.02,0-.07,0-.13,0-.06,0-.13,0-.21,0,0,.01,0,.03,0,.05,0,.02,0,.04,0,.05Zm-2.3,.71s-.06,.04-.14,.04c-.08,0-.16,0-.25,0-.09,0-.18-.02-.27-.04-.09-.02-.16-.04-.2-.07-.05-.03-.07-.21-.07-.54,0-.33,.01-.66,.04-1-.18-.03-.32-.05-.45-.08-.13-.03-.19-.06-.2-.09-.02-.05-.03-.12-.03-.22,0-.1,0-.21,0-.31,0-.1,.02-.2,.04-.28,.02-.08,.04-.13,.06-.14,.04-.02,.16-.03,.36-.02,.2,0,.43,.02,.69,.05,.26,.03,.52,.06,.78,.09,.26,.04,.48,.07,.65,.1,.07,.01,.11,.08,.12,.19,.01,.12,0,.24-.02,.37-.02,.13-.06,.25-.11,.36-.05,.11-.1,.16-.14,.16-.05,0-.12,0-.22,0-.1,0-.21-.01-.34-.03-.05,.33-.1,.65-.16,.96-.06,.31-.11,.48-.15,.52Zm-4.41-2.17s-.09,.1-.15,.19c-.05,.09-.08,.15-.07,.18,.01,.06,.08,.09,.22,.1,.14,.02,.21,0,.23-.07,.01-.04,0-.12-.07-.27-.06-.14-.11-.19-.17-.15Zm-1.38,1.39s-.03-.06-.02-.09c.02-.11,.06-.28,.14-.51,.08-.22,.16-.46,.26-.69,.1-.24,.2-.46,.31-.67,.1-.21,.19-.35,.26-.43,.03-.03,.09-.05,.2-.07,.11-.01,.22-.01,.35,0,.13,0,.25,.03,.36,.05,.11,.03,.19,.07,.23,.12,.06,.07,.11,.22,.17,.45,.06,.23,.11,.48,.16,.74,.05,.27,.09,.52,.12,.77,.03,.24,.05,.41,.06,.51,0,.07,0,.12-.04,.15-.03,.02-.07,.04-.14,.04-.11,0-.24,0-.39-.02-.16-.01-.25-.03-.29-.04-.01,0-.03-.01-.04-.02-.04-.03-.07-.11-.09-.24-.02-.13-.05-.22-.08-.27-.02-.03-.05-.05-.08-.06l-.29-.05c-.09-.01-.15,0-.19,.06-.05,.07-.1,.15-.16,.23-.06,.08-.1,.14-.12,.15-.01,.01-.03,.02-.05,.02-.05,0-.17-.01-.34-.04-.18-.03-.28-.07-.3-.1Zm.06-1.97c-.02,.05-.12,.15-.3,.31-.18,.15-.4,.31-.64,.47-.06,.24-.12,.46-.19,.65-.07,.19-.12,.3-.15,.33-.02,.01-.07,.02-.15,.01-.08,0-.17-.02-.27-.04-.1-.02-.19-.03-.27-.05-.08-.02-.13-.04-.15-.05-.03-.03-.05-.14-.06-.35,0-.2,0-.43,.03-.68-.18-.25-.32-.48-.45-.7-.12-.22-.18-.35-.17-.41,0-.03,.03-.09,.09-.15,.06-.07,.14-.13,.22-.2,.08-.07,.17-.12,.25-.17,.08-.05,.14-.07,.17-.07,.07,0,.17,.09,.29,.24,.12,.15,.25,.32,.39,.52,.2-.13,.39-.24,.56-.33,.17-.09,.29-.13,.36-.11,.03,0,.07,.05,.13,.12,.06,.07,.11,.15,.17,.24,.05,.09,.1,.17,.13,.26,.03,.08,.04,.14,.03,.17Zm-3.42,1.28s-.07,.04-.14,.03c-.07,0-.15-.01-.24-.03-.08-.02-.16-.04-.24-.07-.07-.03-.12-.05-.15-.07-.04-.03-.08-.09-.14-.18-.06-.09-.11-.19-.17-.3-.06-.11-.11-.21-.15-.3-.05-.09-.07-.15-.09-.18-.07,.2-.13,.37-.19,.52-.05,.14-.1,.22-.13,.22-.1,.02-.25,0-.45-.06-.21-.06-.31-.12-.32-.17-.02-.04,0-.16,.02-.36,.03-.2,.07-.43,.13-.69,.06-.26,.12-.52,.19-.78,.07-.26,.14-.47,.21-.63,.01-.03,.06-.05,.14-.05,.08,0,.17,.01,.27,.03,.1,.02,.2,.05,.3,.09,.1,.04,.17,.07,.22,.11,.07,.05,.15,.18,.23,.36,.08,.19,.14,.32,.17,.42,.03-.12,.05-.23,.07-.33,.02-.1,.04-.17,.05-.21,.02-.06,.08-.08,.19-.09,.11,0,.23,0,.35,.04,.12,.03,.24,.06,.34,.11,.1,.05,.15,.09,.14,.14-.02,.17-.07,.39-.13,.66-.06,.26-.13,.53-.19,.78-.07,.26-.13,.48-.19,.67-.06,.19-.1,.3-.12,.33Zm-2.34-2.6s-.09,.12-.24,.24c-.15,.11-.32,.23-.52,.35,.22,.19,.38,.35,.51,.49,.03,.04,.02,.1-.02,.2-.05,.1-.11,.2-.18,.3-.08,.1-.16,.19-.24,.26-.09,.07-.15,.09-.21,.07-.06-.03-.15-.1-.28-.2-.13-.11-.27-.23-.42-.36-.06,.15-.1,.24-.13,.26-.04,.04-.17,.04-.38,0-.22-.04-.37-.09-.45-.15-.04-.03-.04-.15-.02-.38,.03-.23,.06-.48,.11-.76,.05-.28,.1-.55,.17-.81,.06-.26,.1-.43,.14-.51,.02-.05,.1-.08,.22-.08,.12,0,.25,.01,.39,.04,.14,.03,.26,.07,.37,.11,.11,.05,.16,.09,.16,.14,0,.05-.01,.1-.02,.15,0,.05-.02,.11-.03,.18,.16-.08,.31-.14,.44-.18,.13-.04,.21-.05,.24-.03,.08,.06,.17,.18,.27,.36,.1,.18,.15,.28,.13,.33Zm-3.81-.59c-.05,.03-.11,.09-.17,.17-.06,.08-.1,.14-.09,.17,0,.06,.07,.1,.2,.13,.13,.03,.21,.02,.24-.03,.02-.03,0-.12-.03-.27-.04-.15-.09-.21-.14-.17Zm-1.55,1.19s-.02-.06-.01-.09c.03-.11,.1-.27,.21-.48,.11-.21,.22-.43,.36-.65,.13-.22,.26-.43,.39-.62,.13-.19,.23-.32,.31-.39,.03-.03,.1-.04,.21-.04,.11,0,.22,.01,.35,.04,.12,.03,.24,.06,.35,.1,.11,.04,.18,.09,.21,.15,.05,.08,.08,.24,.11,.47,.03,.24,.04,.49,.06,.76,.01,.27,.02,.53,.02,.78s0,.42,0,.52c0,.07-.02,.12-.06,.14-.03,.02-.08,.03-.14,.02-.11-.01-.23-.04-.38-.07-.15-.04-.25-.06-.28-.08-.01,0-.03-.02-.04-.03-.03-.04-.05-.12-.06-.25,0-.13-.02-.22-.04-.28-.01-.03-.04-.06-.07-.07l-.28-.08c-.09-.02-.15-.01-.2,.04-.06,.06-.12,.13-.19,.21-.07,.08-.12,.12-.14,.13-.01,0-.03,.01-.05,.01-.05,0-.16-.03-.33-.09-.17-.06-.27-.1-.28-.14Zm-.32-.15s-.07,.03-.14,.01c-.07-.01-.15-.03-.23-.06-.08-.03-.16-.06-.23-.09-.07-.03-.12-.06-.14-.08-.03-.03-.07-.1-.12-.2-.05-.1-.09-.2-.13-.32-.05-.11-.08-.22-.12-.32-.04-.1-.06-.16-.06-.19-.09,.19-.17,.36-.24,.49-.07,.13-.12,.2-.15,.21-.1,0-.24-.03-.44-.12-.2-.08-.3-.15-.3-.21-.01-.04,0-.16,.06-.36,.05-.2,.12-.42,.21-.67,.09-.25,.18-.5,.28-.75,.1-.25,.2-.45,.28-.6,.02-.03,.07-.04,.15-.03,.08,0,.17,.03,.27,.07,.1,.03,.19,.07,.29,.12,.09,.05,.16,.09,.21,.13,.06,.06,.13,.19,.19,.38,.06,.19,.1,.34,.12,.43,.04-.12,.08-.23,.11-.32,.03-.09,.06-.16,.08-.2,.02-.05,.09-.07,.2-.06,.11,0,.23,.04,.35,.07,.12,.04,.23,.09,.32,.15,.09,.06,.13,.11,.12,.15-.04,.17-.11,.38-.2,.64-.09,.26-.19,.51-.28,.75-.1,.25-.19,.46-.27,.65-.08,.18-.13,.29-.16,.32Zm-3.23-2.12c.2,.07,.38,.13,.54,.18,.16,.05,.25,.09,.27,.13,.02,.04,0,.15-.05,.34-.06,.19-.11,.33-.17,.4-.02,.03-.12,.03-.3,0-.17-.04-.36-.09-.57-.16-.21-.07-.4-.14-.59-.21-.19-.08-.3-.14-.35-.18-.03-.03-.02-.13,.02-.3,.04-.18,.09-.38,.17-.6,.07-.23,.15-.46,.23-.69,.08-.23,.16-.42,.22-.57,.03-.08,.06-.15,.1-.21,.04-.06,.07-.1,.11-.1,.03,0,.14,.02,.31,.07,.17,.05,.36,.11,.56,.18,.2,.07,.38,.14,.54,.21,.16,.07,.25,.12,.27,.16,.02,.04,0,.14-.06,.31-.06,.17-.11,.29-.17,.37-.03,.04-.11,.03-.26-.01-.15-.04-.32-.1-.52-.16,0,.01,0,.03-.02,.05,0,.02,0,.03-.01,.05,.13,.05,.22,.1,.3,.14,.02,.01,.02,.05,.02,.12,0,.07-.02,.14-.04,.21-.02,.07-.04,.14-.07,.2-.03,.06-.06,.08-.09,.08-.03,0-.07-.01-.13-.03-.06-.02-.13-.04-.2-.06,0,.01-.01,.03-.02,.05,0,.02-.01,.04-.02,.05Z"/>
        <path class="cls-3" d="M66.66,86.68c-.1,.04-.19,.08-.25,.14-.09,.08-.15,.17-.16,.28-.01,.11,0,.2,.05,.28,.05,.08,.12,.15,.22,.19,.1,.04,.22,.04,.35,0,.1-.04,.14-.09,.12-.16-.02-.07-.03-.13-.05-.2-.02-.04,0-.09,.08-.16,.07-.07,.16-.12,.26-.18,.1-.05,.2-.09,.3-.11,.1-.02,.16-.02,.18,.03,.05,.08,.1,.18,.15,.31,.06,.13,.11,.25,.16,.37,.05,.12,.09,.24,.12,.33,.03,.1,.04,.16,.02,.19,0,.03-.09,.08-.25,.15-.16,.07-.28,.11-.35,.11,0,0-.02,0-.04-.01-.18,.13-.37,.22-.57,.29-.35,.11-.69,.09-1.02-.06-.33-.15-.54-.41-.64-.77-.11-.4-.09-.76,.06-1.07,.15-.31,.4-.55,.76-.71,.23-.11,.47-.14,.71-.11,.24,.03,.42,.19,.53,.47,.02,.04,0,.09-.04,.14-.05,.05-.11,.1-.18,.15-.07,.05-.15,.09-.22,.13-.08,.04-.13,.06-.17,.07-.05,.01-.08,0-.09-.03-.01-.03-.03-.04-.05-.04m-1.14,2.28s-.04,.07-.1,.1c-.06,.04-.13,.07-.22,.1-.08,.03-.16,.06-.24,.07-.08,.02-.13,.03-.16,.02-.05,0-.11-.03-.21-.08-.1-.05-.2-.1-.31-.16-.11-.06-.2-.11-.29-.17-.09-.05-.15-.09-.17-.11,.05,.21,.1,.39,.13,.53,.03,.15,.04,.24,.01,.26-.07,.07-.21,.13-.41,.19-.21,.06-.33,.07-.36,.04-.04-.02-.1-.13-.18-.32-.09-.19-.17-.4-.27-.65-.09-.25-.18-.5-.26-.76-.08-.26-.14-.47-.17-.65,0-.03,.02-.07,.09-.12,.07-.04,.15-.08,.25-.12,.1-.04,.19-.07,.3-.09,.1-.02,.19-.03,.25-.03,.09,0,.22,.07,.39,.18,.17,.11,.29,.19,.37,.26-.04-.12-.09-.23-.12-.32-.04-.09-.06-.16-.07-.21-.02-.06,.02-.11,.11-.18,.09-.06,.2-.12,.32-.16,.12-.04,.23-.08,.34-.09,.11-.01,.17,0,.19,.04,.07,.16,.16,.37,.25,.62,.09,.26,.18,.51,.26,.76,.08,.25,.15,.47,.21,.67,.05,.19,.08,.31,.08,.34Zm-4.32-.23c-.03,.05-.05,.13-.06,.23-.01,.1,0,.17,0,.2,.03,.05,.11,.05,.24,0,.13-.04,.19-.09,.19-.15,0-.04-.06-.11-.17-.22-.11-.11-.18-.13-.21-.07Zm-.71,1.82s-.05-.04-.06-.07c-.03-.11-.06-.28-.08-.52-.02-.24-.03-.48-.03-.74,0-.26,0-.5,.01-.73,.01-.23,.03-.4,.06-.5,.01-.04,.06-.09,.16-.14,.09-.05,.2-.1,.32-.15,.12-.04,.24-.07,.35-.09,.12-.02,.2-.02,.26,.01,.08,.04,.19,.16,.34,.35,.14,.19,.29,.39,.44,.62,.15,.22,.29,.44,.42,.65,.13,.21,.22,.36,.26,.45,.03,.07,.04,.11,.03,.15-.02,.03-.05,.06-.11,.09-.1,.04-.22,.09-.37,.14-.15,.05-.24,.08-.28,.08-.01,0-.03,0-.04,0-.05-.01-.11-.08-.18-.19-.07-.11-.13-.18-.18-.22-.03-.02-.06-.03-.1-.02l-.28,.07c-.09,.03-.14,.07-.15,.13-.01,.08-.03,.17-.05,.27-.02,.1-.04,.17-.05,.19,0,.02-.02,.03-.04,.04-.04,.02-.16,.06-.33,.1-.18,.04-.28,.05-.31,.03Zm-.43,.12c-.01,.05-.13,.11-.34,.18-.21,.07-.37,.09-.47,.08-.05,0-.11-.11-.21-.33-.09-.21-.19-.45-.29-.72-.1-.27-.19-.53-.27-.78-.08-.25-.13-.42-.14-.51-.01-.07,.04-.14,.15-.21,.11-.07,.24-.12,.38-.17,.14-.04,.28-.07,.41-.07,.13,0,.2,.02,.23,.08,.06,.16,.13,.37,.2,.63,.07,.26,.14,.52,.19,.77,.06,.25,.1,.48,.13,.68,.03,.2,.04,.32,.02,.36Zm-2.75-1.09c-.11,.02-.2,.05-.27,.1-.1,.07-.17,.15-.2,.25-.03,.1-.03,.2,0,.29,.03,.09,.09,.16,.18,.22,.09,.06,.21,.07,.35,.05,.1-.02,.15-.07,.15-.13,0-.07,0-.14-.01-.21-.02-.04,.02-.09,.1-.14,.08-.05,.18-.1,.29-.13,.11-.04,.22-.06,.32-.06,.1,0,.16,.01,.18,.06,.03,.08,.06,.19,.1,.33,.04,.13,.07,.26,.1,.39,.03,.13,.05,.25,.06,.35,.01,.1,.01,.17,0,.19-.01,.03-.1,.06-.27,.1-.17,.04-.29,.06-.36,.05-.01,0-.02,0-.04-.02-.2,.1-.4,.16-.6,.19-.36,.05-.7-.02-.99-.22-.3-.2-.47-.49-.51-.87-.04-.41,.03-.76,.23-1.04,.2-.28,.49-.47,.86-.58,.25-.07,.49-.07,.72,0,.23,.07,.38,.25,.45,.55,.01,.04,0,.09-.06,.13-.06,.05-.12,.09-.2,.12-.08,.04-.16,.07-.24,.09-.08,.02-.14,.04-.18,.04-.05,0-.08-.01-.08-.04,0-.03-.02-.05-.05-.05Zm-1.49,2.11s-.05,.06-.11,.09c-.07,.03-.14,.05-.23,.07-.08,.02-.17,.04-.24,.05-.08,.01-.13,.01-.16,0-.04,0-.11-.04-.2-.1-.09-.06-.19-.12-.29-.19-.1-.07-.19-.14-.27-.2-.08-.06-.14-.11-.16-.13,.03,.21,.05,.39,.07,.55,.01,.15,0,.24-.02,.26-.08,.06-.22,.11-.43,.14-.21,.04-.33,.04-.37,0-.03-.03-.08-.14-.14-.34-.06-.2-.13-.42-.19-.68-.06-.26-.12-.52-.17-.78-.05-.27-.08-.49-.09-.66,0-.04,.03-.07,.11-.1,.07-.04,.16-.07,.26-.09,.1-.02,.2-.04,.31-.06,.1-.01,.19-.01,.25,0,.09,.02,.21,.09,.36,.22,.15,.13,.27,.23,.34,.3-.03-.12-.06-.23-.08-.33-.03-.09-.04-.17-.05-.21,0-.06,.03-.11,.13-.16,.1-.05,.21-.09,.33-.13,.12-.03,.24-.05,.35-.05,.11,0,.17,.02,.19,.06,.06,.17,.11,.38,.18,.65,.06,.26,.12,.53,.18,.79,.05,.26,.1,.49,.13,.69,.03,.2,.05,.32,.04,.35Z"/>
        <path class="cls-2" d="M38.01,3.24c15.52,0,28.27,17.14,19.33,32.11-2.12-6.59-10.86-9.85-19.55-9.79-4.63,.17-7.11,5.54-3.56,9.1-7.24-1.94-7.47-10.12-4.78-12.81-1.9,1.65-2.51,3.92-2.65,5.77-3.92,1.62-6.97,4.2-8.11,7.74-6.5-10.87-1.55-22.88,7.58-28.65,.72,1.34,2.21,3.28,5.02,3.84-5.21-3.01-4.09-8.03-2.64-10.55,.82,3.05,7.59,3.24,9.07,3.25h.26s.02,0,.02,0h0Z"/>
    </g>
</svg>